<svg width="18" height="17" viewBox="0 0 18 17" fill="none" xmlns="http://www.w3.org/2000/svg">
<path d="M13.9184 7.88927L12.8028 8.44537L12.2527 7.48387L12.8258 7.19877V2.15297L9.00164 0.240967L5.17754 2.15297V7.19877L5.75064 7.48557L5.20044 8.44537L4.08494 7.88927L0.260742 9.80137V14.8471L4.08494 16.7591L7.90904 14.8471V13.4168H10.0943V14.8471L13.9184 16.7591L17.7426 14.8471V9.80137L13.9184 7.88927ZM10.7302 7.02497L9.54794 7.61607V4.46717L11.7332 3.37457V6.52347L11.7091 6.53547L11.1148 5.49747L10.1664 6.04057L10.7302 7.02497ZM9.00164 1.46247L11.0579 2.49067L9.00164 3.51877L6.94534 2.49067L9.00164 1.46247ZM6.27014 3.37457L8.45534 4.46717V7.61607L7.27314 7.02497L7.83694 6.04167L6.88854 5.49537L6.29414 6.53327L6.27014 6.52347V3.37457ZM3.53854 15.2644L1.35334 14.1718V11.0229L3.53854 12.1155V15.2644ZM2.02864 10.139L4.08494 9.11077L6.14124 10.139L4.08494 11.1671L2.02864 10.139ZM6.81644 12.3242H5.72384V13.4168H6.81644V14.1718L4.63124 15.2644V12.1155L6.81644 11.0229V12.3242ZM10.0943 12.3242H7.90904V9.80137L6.17944 8.93707L6.72954 7.97557L9.00164 9.11077L11.2737 7.97507L11.8239 8.93657L10.0943 9.80137V12.3242ZM13.3721 15.2644L11.1869 14.1718V13.4168H12.2795V12.3242H11.1869V11.0229L13.3721 12.1155V15.2644ZM11.8621 10.139L13.9184 9.11077L15.9747 10.139L13.9184 11.1671L11.8621 10.139ZM16.65 14.1718L14.4647 15.2644V12.1155L16.65 11.0229V14.1718Z" fill="white"/>
</svg>
